<svg width="23" height="24" viewBox="0 0 23 24" fill="none" xmlns="http://www.w3.org/2000/svg">
<path d="M20.4095 16.8292V19.7952C20.4105 20.0706 20.3597 20.3431 20.2604 20.5954C20.1612 20.8477 20.0156 21.0741 19.833 21.2603C19.6504 21.4464 19.4348 21.5881 19.2001 21.6764C18.9654 21.7646 18.7167 21.7973 18.4699 21.7726C15.7321 21.442 13.1022 20.4024 10.7916 18.7373C8.64189 17.2194 6.81931 15.1941 5.45329 12.8053C3.94964 10.2261 3.0139 7.2895 2.72185 4.23352C2.69962 3.96012 2.72886 3.68457 2.80771 3.42442C2.88656 3.16426 3.0133 2.9252 3.17985 2.72246C3.3464 2.51972 3.54912 2.35773 3.77509 2.24681C4.00107 2.13589 4.24535 2.07848 4.49239 2.07822H7.16155C7.59333 2.0735 8.01193 2.24341 8.33932 2.55628C8.66671 2.86914 8.88055 3.30363 8.94099 3.77874C9.05364 4.72793 9.26257 5.65991 9.56379 6.5569C9.6835 6.91077 9.7094 7.29535 9.63844 7.66508C9.56748 8.03481 9.40263 8.37419 9.16342 8.643L8.03347 9.89861C9.30004 12.3738 11.1443 14.4232 13.3718 15.8306L14.5017 14.575C14.7436 14.3092 15.049 14.126 15.3818 14.0472C15.7145 13.9683 16.0606 13.9971 16.379 14.1301C17.1863 14.4648 18.025 14.697 18.8791 14.8222C19.3113 14.8899 19.7061 15.1319 19.9882 15.5019C20.2704 15.8719 20.4203 16.3443 20.4095 16.8292Z" stroke="#B00000" stroke-width="2" stroke-linecap="round" stroke-linejoin="round"/>
</svg>
